<?xml version="1.0" encoding="utf-8"?>
<!-- Generator: Adobe Illustrator 24.0.2, SVG Export Plug-In . SVG Version: 6.00 Build 0)  -->
<svg version="1.1" id="Layer_1" xmlns="http://www.w3.org/2000/svg" xmlns:xlink="http://www.w3.org/1999/xlink" x="0px" y="0px"
	 viewBox="0 0 140 140" style="enable-background:new 0 0 140 140;" xml:space="preserve">
<style type="text/css">
	.st0{fill-rule:evenodd;clip-rule:evenodd;fill:#ECF1F7;}
</style>
<g>
	<path class="st0" d="M30.1,36.1l7.3,81.2l32.6,9l32.6-9l7.3-81.2H30.1z M94.7,55.3l-0.5,5l-0.2,2.2H55.9l0.9,10.2h36.4l-0.2,2.7
		l-2.3,26.2l-0.2,1.7L70,109l0,0l0,0l-20.4-5.7l-1.4-15.6h10l0.7,7.9l11.1,3h0v0l0,0l11.1-3l1.2-12.9H47.7l-2.5-27.4L45,52.7h50
		L94.7,55.3z"/>
	<path class="st0" d="M37.6,14h5.1v5h4.6v-5h5.1v15.1h-5.1v-5.1h-4.6v5.1h-5.1L37.6,14L37.6,14z"/>
	<path class="st0" d="M59,19h-4.5v-5h14v5h-4.5v10.1H59L59,19L59,19z"/>
	<path class="st0" d="M70.8,14h5.3l3.3,5.3l3.2-5.3h5.3v15.1h-5.1v-7.5L79.3,27h-0.1l-3.5-5.4v7.5h-5V14z"/>
	<path class="st0" d="M90.4,14h5.1v10.1h7.1v5H90.4V14z"/>
</g>
</svg>
