<?xml version="1.0" encoding="utf-8"?>
<!-- Generator: Adobe Illustrator 24.0.2, SVG Export Plug-In . SVG Version: 6.00 Build 0)  -->
<svg version="1.1" id="Layer_1" xmlns="http://www.w3.org/2000/svg" xmlns:xlink="http://www.w3.org/1999/xlink" x="0px" y="0px"
	 viewBox="0 0 140 140" style="enable-background:new 0 0 140 140;" xml:space="preserve">
<style type="text/css">
	.st0{fill:#ECF1F7;}
</style>
<g>
	<path class="st0" d="M65,68c0.4,1.1,0.7,2.1,1,3H55.4c0.6-1.8,1.2-3.7,1.8-5.8c0.7-2.1,1.3-4.2,1.9-6.2c0.6-1.8,1-3.6,1.4-5.4h0.1
		c0.3,1,0.6,2.1,0.9,3.3c0.3,1.2,0.7,2.4,1.1,3.7c0.4,1.3,0.8,2.5,1.2,3.8C64.3,65.7,64.6,66.9,65,68z"/>
	<path class="st0" d="M102.3,21H37.7C27.9,21,20,28.9,20,38.7v62.1c0,9.8,7.9,17.7,17.7,17.7h64.6c9.8,0,17.7-7.9,17.7-17.7V38.7
		C120,28.9,112.1,21,102.3,21z M81.3,89.9h-8.7c-0.3,0-0.6-0.2-0.7-0.5l-3.4-9.9H53l-3.2,9.8c-0.1,0.4-0.4,0.6-0.8,0.6h-7.8
		c-0.5,0-0.6-0.3-0.5-0.8l13.4-38.6c0.1-0.4,0.3-0.9,0.4-1.4c0.2-0.9,0.3-1.8,0.3-2.7c0-0.2,0.1-0.4,0.3-0.5h10.8
		c0.3,0,0.5,0.1,0.5,0.3l15.2,42.9C81.8,89.7,81.7,89.9,81.3,89.9z M95.4,89.3c0,0.5-0.2,0.7-0.5,0.7h-8.2c-0.4,0-0.6-0.3-0.6-0.7
		V57.2c0-0.4,0.2-0.6,0.5-0.6h8.3c0.4,0,0.5,0.2,0.5,0.6V89.3z M94.5,51.6c-1,1-2.4,1.5-3.8,1.5c-1.4,0-2.7-0.5-3.7-1.5
		c-1-1-1.5-2.4-1.4-3.8c0-1.4,0.5-2.8,1.5-3.7c1-1,2.3-1.5,3.7-1.5c1.6,0,2.9,0.5,3.8,1.5c0.9,1,1.4,2.3,1.4,3.7
		C96,49.2,95.5,50.6,94.5,51.6z"/>
</g>
</svg>
