<?xml version="1.0" encoding="utf-8"?>
<!-- Generator: Adobe Illustrator 24.0.2, SVG Export Plug-In . SVG Version: 6.00 Build 0)  -->
<svg version="1.1" id="Layer_1" xmlns="http://www.w3.org/2000/svg" xmlns:xlink="http://www.w3.org/1999/xlink" x="0px" y="0px"
	 viewBox="0 0 140 140" style="enable-background:new 0 0 140 140;" xml:space="preserve">
<style type="text/css">
	.st0{fill:#ECF1F7;}
</style>
<g>
	<path class="st0" d="M64,57.2c0.7,1.1,1,2.4,1,3.7c0,1.8-0.4,3.3-1.3,4.3c-0.9,1-2.1,1.8-3.4,2.2c-1.5,0.5-3.2,0.8-4.8,0.8h-2.2
		c-0.5,0-1,0-1.6-0.1v-14c0.3,0,0.9-0.1,1.7,0c0.8,0,1.8,0,2.8,0c1.7,0,3.4,0.2,4.9,0.8C62.3,55.3,63.3,56.1,64,57.2z"/>
	<path class="st0" d="M102.3,21H37.7C27.9,21,20,28.9,20,38.7v62.1c0,9.8,7.9,17.7,17.7,17.7h64.6c9.8,0,17.7-7.9,17.7-17.7V38.7
		C120,28.9,112.1,21,102.3,21z M71.5,69.5c-1.7,2.3-4,4.1-6.7,5.1c-2.8,1-6,1.4-9.4,1.4c-1,0-1.7,0-2.1,0c-0.4,0-1,0-1.8,0v13.4
		c0,0.3-0.2,0.5-0.5,0.6H43c-0.3,0-0.5-0.2-0.5-0.5V46.5c0-0.3,0.1-0.5,0.4-0.5c0.7,0,1.4,0,2.3,0c1,0,2,0,3.2-0.1
		c1.1,0,2.3,0,3.6-0.1c1.3,0,2.5,0,3.8,0c3.4,0,6.3,0.4,8.6,1.3c2.1,0.7,4,1.9,5.6,3.4c1.3,1.3,2.4,3,3,4.8c0.6,1.8,1,3.5,1,5.4
		C74,64.3,73.2,67.2,71.5,69.5z M101,85.8c-1.2,1.7-2.8,3-4.7,3.7c-2,0.9-4.5,1.3-7.5,1.3c-1.9,0-3.8-0.2-5.7-0.5
		c-1.5-0.3-2.9-0.7-4.3-1.3c-0.3-0.2-0.5-0.5-0.5-0.8v-7.2c0-0.1,0-0.3,0.2-0.4c0.1-0.1,0.3,0,0.4,0c1.6,1,3.3,1.6,5.2,2
		c1.6,0.4,3.3,0.6,4.9,0.6c1.6,0,2.7-0.2,3.5-0.6c0.7-0.3,1.1-1,1.1-1.7c0-0.6-0.3-1.1-1-1.7c-0.7-0.5-2-1.2-4.1-2
		c-2.1-0.8-4.1-1.8-5.9-3c-1.3-0.9-2.4-2.1-3.2-3.5c-0.7-1.3-1-2.8-1-4.3c0-1.8,0.5-3.5,1.4-5c1-1.7,2.6-3,4.4-3.8
		c2-1,4.4-1.5,7.4-1.5c1.7,0,3.5,0.1,5.2,0.4c1.2,0.2,2.5,0.5,3.6,1c0.2,0,0.3,0.2,0.4,0.4c0,0.2,0.1,0.3,0.1,0.5v6.8
		c0,0.2-0.1,0.3-0.2,0.4c-0.4,0.1-0.6,0.1-0.8,0c-1.3-0.7-2.6-1.1-4-1.4c-1.5-0.3-3.1-0.5-4.7-0.5c-0.8,0-1.7,0.1-2.5,0.3
		c-0.5,0.1-1,0.4-1.3,0.8c-0.2,0.3-0.3,0.8-0.3,1.1c0,0.4,0.2,0.8,0.4,1.1c0.4,0.5,0.9,0.8,1.4,1.1c1,0.5,2,1,3,1.4
		c2.3,0.8,4.4,1.8,6.4,3c1.4,0.9,2.5,2,3.3,3.5c0.7,1.3,1,2.8,1,4.3C102.7,82.2,102.1,84.1,101,85.8z"/>
</g>
</svg>
