<?xml version="1.0" encoding="utf-8"?>
<!-- Generator: Adobe Illustrator 24.0.2, SVG Export Plug-In . SVG Version: 6.00 Build 0)  -->
<svg version="1.1" id="Layer_1" xmlns="http://www.w3.org/2000/svg" xmlns:xlink="http://www.w3.org/1999/xlink" x="0px" y="0px"
	 viewBox="0 0 140 140" style="enable-background:new 0 0 140 140;" xml:space="preserve">
<style type="text/css">
	.st0{fill:#ECF1F7;}
	.st1{fill:#FF6853;}
</style>
<g>
	<path class="st0" d="M70,99L70,99L70,99L70,99L70,99z"/>
	<path class="st0" d="M30.1,36.1l7.3,81.5l32.5,9l32.6-9.1l7.3-81.5H30.1z M93.2,73l-0.2,2.7L90.6,102l-0.2,1.7L70,109.4l0,0h0
		l-20.4-5.7L48.1,88h10l0.7,8L70,99h0v0l0,0l11.1-3l1.2-13H47.7l-0.9-10h36.3L84,62.8H45.9l-0.9-10h50L93.2,73z"/>
	<path class="st0" d="M90,18.4V14H77.9v9.9h7v0.9h-7v4.6H90V19.3h-7v-0.9H90z M75.5,18.4V14H63.4v9.9h7v0.9h-7v4.6h12.1V19.3h-7
		v-0.9H75.5z M61,19.1V14H48.9v15.2H61v-5.1h-7v-5.1H61z"/>
	<polygon class="st1" points="70,99 70,99 70,99 70,99 	"/>
</g>
</svg>
