<?xml version="1.0" encoding="utf-8"?>
<!-- Generator: Adobe Illustrator 24.0.2, SVG Export Plug-In . SVG Version: 6.00 Build 0)  -->
<svg version="1.1" id="Layer_1" xmlns="http://www.w3.org/2000/svg" xmlns:xlink="http://www.w3.org/1999/xlink" x="0px" y="0px"
	 viewBox="0 0 140 140" style="enable-background:new 0 0 140 140;" xml:space="preserve">
<style type="text/css">
	.st0{fill:#ECF1F7;}
</style>
<g>
	<g>
		<path class="st0" d="M72.5,91.4v16.5c0,9.1-7.4,16.4-16.4,16.4c-9.1,0-16.5-7.4-16.5-16.4c0-9.1,7.4-16.5,16.5-16.5H72.5z"/>
	</g>
	<g>
		<path class="st0" d="M72.5,15.6v32.9H56.1c-9.1,0-16.5-7.4-16.5-16.5S47,15.6,56.1,15.6H72.5z"/>
	</g>
	<g>
		<path class="st0" d="M72.5,53.5v32.9H56.1C47,86.4,39.6,79,39.6,70S47,53.5,56.1,53.5H72.5z"/>
	</g>
	<g>
		<path class="st0" d="M110.4,32c0,9.1-7.4,16.5-16.5,16.5H77.5V15.6h16.4C103,15.6,110.4,23,110.4,32z"/>
	</g>
	<g>
		<path class="st0" d="M110.4,70c0,9.1-7.4,16.4-16.5,16.4c-9.1,0-16.4-7.4-16.4-16.4s7.4-16.5,16.4-16.5
			C103,53.5,110.4,60.9,110.4,70z"/>
	</g>
</g>
</svg>
