<?xml version="1.0" encoding="utf-8"?>
<!-- Generator: Adobe Illustrator 24.0.2, SVG Export Plug-In . SVG Version: 6.00 Build 0)  -->
<svg version="1.1" id="Layer_1" xmlns="http://www.w3.org/2000/svg" xmlns:xlink="http://www.w3.org/1999/xlink" x="0px" y="0px"
	 viewBox="0 0 140 140" style="enable-background:new 0 0 140 140;" xml:space="preserve">
<style type="text/css">
	.st0{fill:#ECF1F7;}
</style>
<g>
	<path class="st0" d="M69,66.7h-7.5V54h9c4.9,0,7.6,2.2,7.6,6.1C78.1,64.3,74.9,66.7,69,66.7z"/>
	<path class="st0" d="M80.1,78.6c0,4.6-3.2,7-9.3,7h-9.3v-14h8.9C76.8,71.7,80.1,74,80.1,78.6z"/>
	<path class="st0" d="M110.7,57.9c-1.7-5.5-1.9-12.2-1.8-17.5c0.2-5.4-4-10.4-9.7-10.4H40.8c-5.7,0-9.9,5-9.7,10.4
		c0.2,5.2-0.1,12-1.8,17.5c-1.7,5.5-4.6,9-9.3,9.4v5.1c4.7,0.5,7.6,3.9,9.3,9.5c1.7,5.5,1.9,12.2,1.8,17.4c-0.2,5.4,4,10.4,9.7,10.4
		h58.5c5.7,0,9.9-5,9.7-10.4c-0.2-5.2,0.1-11.9,1.8-17.4c1.7-5.5,4.6-9,9.3-9.5v-5.1C115.3,66.9,112.4,63.4,110.7,57.9z M72.2,91
		H54.8V48.6h17.3c7.7,0,12.8,4.2,12.8,10.6c0,4.5-3.4,8.5-7.7,9.2v0.2C83,69.3,87,73.4,87,79C87,86.5,81.4,91,72.2,91z"/>
</g>
</svg>
