<svg id="Layer_1" data-name="Layer 1" xmlns="http://www.w3.org/2000/svg" xmlns:xlink="http://www.w3.org/1999/xlink" viewBox="0 0 720 720"><defs><style>.cls-1{fill:url(#linear-gradient);}</style><linearGradient id="linear-gradient" x1="278.27" y1="503.9" x2="437.77" y2="227.65" gradientUnits="userSpaceOnUse"><stop offset="0" stop-color="#ef5635"/><stop offset="0.4" stop-color="#ef5635" stop-opacity="0"/><stop offset="0.6" stop-color="#ef5635" stop-opacity="0"/><stop offset="1" stop-color="#ef5635"/></linearGradient></defs><title>layer1</title><path class="cls-1" d="M317.52,514.84a73.33,73.33,0,0,1-35.14-8.6c-24.68-13.29-40-40.43-43.06-76.42s6.34-76.22,26.51-113.69c41.71-77.45,117-118.19,167.83-90.82S491.92,338,450.21,415.42C430,452.88,401.51,483,369.89,500.14,351.87,509.92,334.06,514.84,317.52,514.84Zm81.14-296.35c-45.55,0-98.72,37.93-131.31,98.46-20,37.17-29.36,77.21-26.32,112.73s18,62,42.17,75,54.65,10.85,85.87-6.1,59.61-46.85,79.62-84C490,338,482.84,253.75,432.84,226.83A71.3,71.3,0,0,0,398.66,218.49Z"/></svg>