<svg id="Layer_1" data-name="Layer 1" xmlns="http://www.w3.org/2000/svg" viewBox="0 0 720 720"><defs><style>.cls-1{fill:#ef5635;}</style></defs><title>layer2</title><path class="cls-1" d="M47.27,346.12c0-1.37.5-2.24,1.74-2.36,4.59-.62,7.94-4.22,11.54-13.77l28.66-75.93a2.21,2.21,0,0,1,2.11-1.74,2.45,2.45,0,0,1,2.23,1.74l29.53,76.05c3.6,9.43,7.07,13,11.66,13.65,1.24.12,1.74,1,1.74,2.36s-.62,2.23-1.74,2.23H107.2c-2.11,0-3.47-.87-3.47-2.23s1.11-2.24,3.47-2.36c9.3-.62,5.83-4.22,2.23-13.65L105,318.7a2.54,2.54,0,0,0-2.49-1.74H73.82a2.53,2.53,0,0,0-2.48,1.74L67,330c-3.6,9.55-7,13.15,2.36,13.77,2.35.12,3.47,1,3.47,2.36s-1.36,2.23-3.47,2.23H49C47.89,348.35,47.27,347.48,47.27,346.12ZM76.8,311.38H99.38a1.72,1.72,0,0,0,1.74-2.61L89.46,278.5c-.75-2-2.24-2-3,0L75.07,308.77A1.72,1.72,0,0,0,76.8,311.38Z"/><path class="cls-1" d="M140.19,346.12c0-1.37,1-2.24,3-2.36,7.69-.62,7.69-4.84,7.69-15V274.16c0-10.18,0-14.4-7.69-15-2-.12-3-1-3-2.35s1.12-2.24,3-2.24h35.36c20.47,0,33.38,9.68,33.38,24.94,0,10.3-5.34,17.37-15.64,20.72,11.54,3.6,19.36,11.29,19.36,23.08,0,15.38-13.15,25.06-33.62,25.06H143.17C141.31,348.35,140.19,347.48,140.19,346.12Zm25.56-49.26a81.16,81.16,0,0,0,10.92.62c12.66,0,21.34-5.83,21.34-17.37,0-11.79-9.06-20.6-22.08-20.6a59.41,59.41,0,0,0-10.18.87,2.13,2.13,0,0,0-2,2.36V294.5A2.13,2.13,0,0,0,165.75,296.86Zm0,45.16a94.49,94.49,0,0,0,13.65,1c13.15,0,21.22-8.31,21.22-19.85,0-11.78-8.44-20.47-25.81-20.47-1.74,0-5.58.13-8.93.37a2.16,2.16,0,0,0-2.11,2.36v34.24A2.06,2.06,0,0,0,165.75,342Z"/><path class="cls-1" d="M221.82,346.12c0-1.37,1-2.24,3-2.36,7.69-.62,7.69-4.84,7.69-15V274.16c0-10.18,0-14.4-7.69-15-2-.12-3-1-3-2.35s1.12-2.24,3-2.24H260c25.18,0,46,11.29,46,45.41,0,27.3-13.28,48.39-45.29,48.39h-36C222.94,348.35,221.82,347.48,221.82,346.12Zm25.44-4.35A63.46,63.46,0,0,0,258.92,343c24.57,0,32.88-24.44,32.88-41.68s-8.07-40.95-33.87-40.95a50.19,50.19,0,0,0-10.55,1.12,2.39,2.39,0,0,0-2,2.48v75.31A2.31,2.31,0,0,0,247.26,341.77Z"/><path class="cls-1" d="M312.26,346.12c0-1.37,1-2.24,3-2.36,7.69-.62,7.69-4.84,7.69-15V274.16c0-10.18,0-14.4-7.69-15-2-.12-3-1-3-2.35s1.12-2.24,3-2.24h28.29c1.86,0,3,.87,3,2.24s-1,2.23-3,2.35c-7.7.62-7.7,4.84-7.7,15v54.59c0,10.17,0,14.39,7.7,15,2,.12,3,1,3,2.36s-1.11,2.23-3,2.23H315.24C313.38,348.35,312.26,347.48,312.26,346.12Z"/><path class="cls-1" d="M351.47,346.12c0-1.37,1-2.24,3-2.36,7.7-.62,7.7-4.84,7.7-15V274.16c0-10.18,0-14.4-7.7-15-2-.12-3-1-3-2.35s1.11-2.24,3-2.24h28.29c1.86,0,3,.87,3,2.24s-1,2.23-3,2.35c-7.69.62-7.69,4.84-7.69,15v62.65c0,3.23,2.23,5,6.45,5h11.79c12.28,0,17.37-.86,20-14.26.62-3.48,1.86-5,3.48-4.72s2.48,2.36,2,5.46L416.85,342l-.62,4.22a2.15,2.15,0,0,1-2.36,2.11H354.44C352.58,348.35,351.47,347.48,351.47,346.12Z"/><path class="cls-1" d="M422.55,346.12c0-1.37,1-2.24,3-2.36,7.69-.62,7.69-4.84,7.69-15V274.16c0-10.18,0-14.4-7.69-15-2-.12-3-1-3-2.35s1.12-2.24,3-2.24h28.29c1.86,0,3,.87,3,2.24s-1,2.23-3,2.35c-7.7.62-7.7,4.84-7.7,15v62.65c0,3.23,2.24,5,6.45,5h11.79c12.28,0,17.37-.86,20-14.26.62-3.48,1.86-5,3.47-4.72s2.48,2.36,2,5.46L487.94,342l-.63,4.22a2.15,2.15,0,0,1-2.35,2.11H425.53C423.67,348.35,422.55,347.48,422.55,346.12Z"/><path class="cls-1" d="M489.91,346.12c0-1.37.5-2.24,1.74-2.36,4.59-.62,7.94-4.22,11.54-13.77l28.66-75.93a2.21,2.21,0,0,1,2.11-1.74,2.45,2.45,0,0,1,2.23,1.74l29.53,76.05c3.6,9.43,7.07,13,11.66,13.65,1.24.12,1.74,1,1.74,2.36s-.62,2.23-1.74,2.23H549.84c-2.11,0-3.47-.87-3.47-2.23s1.11-2.24,3.47-2.36c9.31-.62,5.83-4.22,2.23-13.65l-4.46-11.41a2.53,2.53,0,0,0-2.48-1.74H516.47A2.52,2.52,0,0,0,514,318.7L509.64,330c-3.6,9.55-6.95,13.15,2.36,13.77,2.36.12,3.47,1,3.47,2.36s-1.36,2.23-3.47,2.23H491.65C490.54,348.35,489.91,347.48,489.91,346.12Zm29.53-34.74H542a1.72,1.72,0,0,0,1.73-2.61L532.1,278.5c-.74-2-2.23-2-3,0l-11.41,30.27A1.72,1.72,0,0,0,519.44,311.38Z"/><path class="cls-1" d="M582.84,346.12c0-1.37,1-2.24,3-2.36,7.7-.62,7.7-4.84,7.7-15V274.16c0-10.18,0-14.4-7.7-15-2-.12-3-1-3-2.35s1.11-2.24,3-2.24H614.1c1.86,0,3,.87,3,2.24s-1,2.23-3,2.35c-7.69.62-7.69,4.84-7.69,15v21.46a2.08,2.08,0,0,0,2.23,2.23h34.25a2.08,2.08,0,0,0,2.23-2.23V274.16c0-10.18,0-14.4-7.69-15-2-.12-3-1-3-2.35s1.12-2.24,3-2.24h28.28c1.87,0,3,.87,3,2.24s-1,2.23-3,2.35c-7.69.62-7.69,4.84-7.69,15v54.59c0,10.17,0,14.39,7.69,15,2,.12,3,1,3,2.36s-1.11,2.23-3,2.23H637.43c-1.86,0-3-.87-3-2.23s1-2.24,3-2.36c7.69-.62,7.69-4.84,7.69-15V305.67a2.08,2.08,0,0,0-2.23-2.23H608.64a2.08,2.08,0,0,0-2.23,2.23v23.08c0,10.17,0,14.39,7.69,15,2,.12,3,1,3,2.36s-1.12,2.23-3,2.23H585.81C584,348.35,582.84,347.48,582.84,346.12Z"/><path class="cls-1" d="M274.44,386.51c0,1.36-.87,2.23-2.61,2.35-7.2.62-7.2,4.84-7.2,15v54.59c0,10.17,0,14.39,7.7,15,2,.12,3,1,3,2.36s-1.11,2.23-3,2.23H244c-1.86,0-3-.87-3-2.23s1-2.24,3-2.36c7.69-.62,7.69-4.84,7.69-15V406.73c0-2.11-1.74-2.6-2.6-.62l-28.29,70.22a2.31,2.31,0,0,1-4.47,0l-28.54-68.48c-.86-2-2.6-1.74-2.6.49v50.13c0,10.17,0,14.39,7.69,15,2,.12,3,1,3,2.36s-1.12,2.23-3,2.23H171.46c-1.86,0-3-.87-3-2.23s1-2.24,3-2.36c7.69-.62,7.69-4.84,7.69-15V403.88c0-10.18,0-14.4-7.2-15-1.73-.12-2.6-1-2.6-2.35s1-2.24,2.6-2.24h17.87a2.54,2.54,0,0,1,2.61,1.74l28,66.13c.74,1.74,2.23,1.86,3,0L250.74,386a2.67,2.67,0,0,1,2.6-1.74h18.49C273.44,384.27,274.44,385.14,274.44,386.51Z"/><path class="cls-1" d="M290.31,436.51V403.88c0-10.18,0-14.4-7.7-15-2-.12-3-1-3-2.35s1.11-2.24,3-2.24h27.92c1.86,0,3,.87,3,2.24s-1,2.23-3,2.35c-7.69.62-7.69,4.84-7.69,15v36.85c0,14.14,1,32.13,22.45,32.13,18.74,0,25.31-13.52,25.31-29.9V403.88c0-10.18,0-14.4-7.69-15-2-.12-3-1-3-2.35s1.12-2.24,3-2.24h21.71c1.87,0,3,.87,3,2.24s-1,2.23-3,2.35c-7.69.62-7.69,4.84-7.69,15v39.7c0,18.24-5.46,35.73-34.24,35.73C293.41,479.31,290.31,460.45,290.31,436.51Z"/><path class="cls-1" d="M371.94,475.84c0-1.37,1-2.24,3-2.36,7.7-.62,7.7-4.84,7.7-15V403.88c0-10.18,0-14.4-7.7-15-2-.12-3-1-3-2.35s1.11-2.24,3-2.24h58.44a2.19,2.19,0,0,1,2.36,2.24l.12,3.1.5,12.16c0,2.73-.75,4.47-2.11,4.59s-2.36-1.49-2.48-4.47c-1.12-11.78-5.34-12-15.51-12H397.74a2.08,2.08,0,0,0-2.23,2.23v33.13a2.08,2.08,0,0,0,2.23,2.23h9.43c10.18,0,14.39,0,15-10.17.12-2.49,1-3.73,2.35-3.73s2.24,1.49,2.24,3.73v25.93c0,2.23-.87,3.72-2.24,3.72s-2.23-1.24-2.35-3.72c-.63-10.18-4.84-10.18-15-10.18h-9.43a2.09,2.09,0,0,0-2.23,2.24v23.2c0,10.17,0,14.39,7.69,15,2,.12,3,1,3,2.36s-1.12,2.23-3,2.23H374.91C373.05,478.07,371.94,477.2,371.94,475.84Z"/><path class="cls-1" d="M441.66,384.27h66.25a2.19,2.19,0,0,1,2.36,2.24l.12,3.72.37,13.4c.13,3-.61,5-2,5s-2.36-1.49-2.61-4.84c-1-13.15-5.21-13.27-15.38-13.27h-7.32a2.08,2.08,0,0,0-2.23,2.23v65.76c0,10.17,0,14.39,7.69,15,2,.12,3,1,3,2.36s-1.12,2.23-3,2.23H460.64c-1.86,0-3-.87-3-2.23s1-2.24,3-2.36c7.69-.62,7.69-4.84,7.69-15V392.71a2.08,2.08,0,0,0-2.23-2.23h-7.32c-10.18,0-14.39.12-15.38,13.27-.25,3.35-1.25,5-2.61,4.84s-2.11-2-2-5l.38-13.4.12-3.72A2.19,2.19,0,0,1,441.66,384.27Z"/><path class="cls-1" d="M514.48,475.84c0-1.37,1-2.24,3-2.36,7.69-.62,7.69-4.84,7.69-15V403.88c0-10.18,0-14.4-7.69-15-2-.12-3-1-3-2.35s1.12-2.24,3-2.24h28.29c1.86,0,3,.87,3,2.24s-1,2.23-3,2.35c-7.7.62-7.7,4.84-7.7,15v54.59c0,10.17,0,14.39,7.7,15,2,.12,3,1,3,2.36s-1.11,2.23-3,2.23H517.46C515.6,478.07,514.48,477.2,514.48,475.84Z"/></svg>