<svg id="Layer_1" data-name="Layer 1" xmlns="http://www.w3.org/2000/svg" viewBox="0 0 720 720"><defs><style>.cls-1{fill:#ef5635;}</style></defs><title>project-hero</title><path class="cls-1" d="M101.08,404.5c0-1.36,1-2.23,3-2.35,7.66-.62,7.66-4.82,7.66-15V332.81c0-10.14,0-14.34-7.66-15-2-.12-3-1-3-2.35s1.11-2.23,3-2.23h35.22c17.19,0,27.32,9.65,27.32,24.11,0,15.57-12.24,27.93-28.55,27.93a95.83,95.83,0,0,1-11.13-1,1.8,1.8,0,0,0-2.35,2v20.89c0,10.14,0,14.34,7.67,15,2,.12,3,1,3,2.35s-1.12,2.23-3,2.23H104.05C102.19,406.73,101.08,405.86,101.08,404.5Zm25.46-45.24a39.8,39.8,0,0,0,7.54.86c11.25,0,18-9.89,18-21.38,0-11.74-7.17-19.66-18.42-19.66a36.65,36.65,0,0,0-7.17.75,2.3,2.3,0,0,0-2,2.47v34.49A2.39,2.39,0,0,0,126.54,359.26Z"/><path class="cls-1" d="M171.54,404.5c0-1.36,1-2.23,3-2.35,7.66-.62,7.66-4.82,7.66-15V332.81c0-10.14,0-14.34-7.66-15-2-.12-3-1-3-2.35s1.11-2.23,3-2.23h35.23c17.18,0,30.53,9.65,30.53,24.11,0,12.36-9.89,21.38-20.77,24.47-1.61.5-2,1.49-1.11,2.85l16.69,25.71c5.56,8.4,10.63,11.12,15.32,11.74,1.24.12,1.86,1,1.86,2.35s-.74,2.23-1.86,2.23H224.2c-1.86,0-3-.87-3-2.23s1-2.23,3-2.35c7.66-.62,2.47-3.34-3.09-11.74L204.3,364.7a3.11,3.11,0,0,0-2.72-1.49l-4.33.13a2.17,2.17,0,0,0-2.22,2.35v21.5c0,10.14,0,14.34,7.66,15,2,.12,3,1,3,2.35s-1.12,2.23-3,2.23H174.51C172.65,406.73,171.54,405.86,171.54,404.5Zm25.59-46.6c3,.25,5.68.37,7.41.37,11.25,0,22-8,22-19.53,0-11.74-11.13-20.15-22.38-20.15a36.47,36.47,0,0,0-7.17.74,2.3,2.3,0,0,0-2,2.47v33.75A2.15,2.15,0,0,0,197.13,357.9Z"/><path class="cls-1" d="M295.28,312.29c22.87,0,41.78,19.9,41.78,47.34,0,27.07-18.29,48.08-41.78,48.08s-41.78-21-41.78-48.08C253.5,332.19,272.41,312.29,295.28,312.29Zm11.62,87.27c16.44-4.95,20.64-25.1,14-47.59s-21-36.1-37.46-31.16-20.76,24-14,46.61S290.46,404.5,306.9,399.56Z"/><path class="cls-1" d="M360.06,402.4c3.21,0,4.08-6.31,4.08-10.14V332.81c0-10.14,0-14.34-7.67-15-2-.12-3-1-3-2.35s1.11-2.23,3-2.23h28.06c1.86,0,3,.87,3,2.23s-1,2.23-3,2.35c-7.66.62-7.66,4.82-7.66,15v41.41c0,14.71-4.7,33.49-22.13,33.49-9.39,0-12.73-5.31-12.73-10.75,0-4.57,2.47-7.42,6.55-7.42C357.46,389.54,355.48,402.4,360.06,402.4Z"/><path class="cls-1" d="M392.45,404.5c0-1.36,1-2.23,3-2.35,7.67-.62,7.67-4.82,7.67-15V332.81c0-10.14,0-14.34-7.67-15-2-.12-3-1-3-2.35s1.11-2.23,3-2.23h59.83a2,2,0,0,1,2.22,2.11l.25,3.21.74,11.5c.25,2.59-.49,4.32-1.85,4.32s-2.35-1.23-2.6-4c-1.48-11.25-5.68-11.62-15.82-11.62h-20a2.08,2.08,0,0,0-2.23,2.22v31.77a2.08,2.08,0,0,0,2.23,2.23h12.61c10.13,0,14.33,0,15-8.9.13-2.23,1-3.34,2.35-3.34s2.23,1.23,2.23,3.34v23.36c0,2-.87,3.34-2.23,3.34s-2.22-1.12-2.35-3.34c-.62-8.9-4.82-8.9-15-8.9H418.16a2.08,2.08,0,0,0-2.23,2.22v33.38c0,3.21,2.23,4.94,6.43,4.94h15.7c10.13,0,14.34-.74,17.06-14.21.74-3.34,1.85-4.82,3.21-4.7s1.85,2.35,1.36,5.44l-2.1,13.72-.87,5.32H395.41C393.56,406.73,392.45,405.86,392.45,404.5Z"/><path class="cls-1" d="M509.88,312.29c7,0,11.62,1.73,17.68,5.06,2.1,1.24,2.72,1.49,3.58,1.49,2.47,0,3.71-2.35,4.33-4.58.37-1.36,1.11-2,2-2s1.36.61,1.49,2.1l1.73,27.69c.12,1.48-.5,2.35-1.36,2.35s-1.61-.62-2-1.86c-3.58-12.48-10.63-24.84-27-24.84-23.24,0-30.16,25-30.16,42.64s7.42,40.79,31.52,40.79c13.85,0,20.28-7.66,26.95-17.67.87-1.12,1.73-1.49,2.72-1s1.11,1.48.49,2.84c-6.79,12.36-16.44,22.37-34.61,22.37-29,0-41.28-25.83-41.28-45.48C466,339,482.44,312.29,509.88,312.29Z"/><path class="cls-1" d="M550.06,313.27h66a2.18,2.18,0,0,1,2.34,2.23l.13,3.71.37,13.35c.12,3-.62,4.94-2,4.94s-2.35-1.48-2.6-4.82c-1-13.1-5.19-13.22-15.32-13.22h-7.3a2.07,2.07,0,0,0-2.22,2.22v65.51c0,10.14,0,14.34,7.66,15,2,.12,3,1,3,2.35s-1.11,2.23-3,2.23H569c-1.85,0-3-.87-3-2.23s1-2.23,3-2.35c7.66-.62,7.66-4.82,7.66-15V321.68a2.07,2.07,0,0,0-2.22-2.22h-7.29c-10.14,0-14.34.12-15.33,13.22-.25,3.34-1.24,4.95-2.6,4.82s-2.1-2-2-4.94l.37-13.35.13-3.71A2.18,2.18,0,0,1,550.06,313.27Z"/></svg>